<?xml version="1.0" encoding="UTF-8"?>
<svg width="18px" height="20px" viewBox="0 0 18 20" version="1.1" xmlns="http://www.w3.org/2000/svg" xmlns:xlink="http://www.w3.org/1999/xlink">
    <title>Icons_Final_2_Profile_4pt</title>
    <g id="Symbols" stroke="none" stroke-width="1" fill="none" fill-rule="evenodd">
        <g id="Layout/Navigation_MV-Icons-3" transform="translate(-1252.000000, -1.000000)" fill="#1D1D1B" fill-rule="nonzero">
            <g id="Icons_Final_2_Profile_4pt" transform="translate(1252.000000, 1.000000)">
                <path d="M17.4097059,19.3579412 L0.590294118,19.3579412 C0.297908074,19.3579412 0.0608823529,19.1209155 0.0608823529,18.8285294 C0.0608823529,14.2305882 4.07117647,10.4876471 9,10.4876471 C13.9288235,10.4876471 17.9391176,14.2305882 17.9391176,18.8285294 C17.9391176,19.1209155 17.7020919,19.3579412 17.4097059,19.3579412 Z M1.14088235,18.2991176 L16.8591176,18.2991176 C16.5652941,14.5297059 13.1532353,11.5464706 9,11.5464706 C4.84676471,11.5464706 1.43470588,14.5297059 1.14088235,18.2991176 Z" id="Shape"></path>
                <path d="M8.94705882,10.0138235 C6.24541178,10.0138235 4.05529412,7.82370587 4.05529412,5.12205882 C4.05529412,2.42041178 6.24541178,0.230294118 8.94705882,0.230294118 C11.6487059,0.230294118 13.8388235,2.42041178 13.8388235,5.12205882 C13.8359057,7.82249635 11.6474963,10.0109057 8.94705882,10.0138235 L8.94705882,10.0138235 Z M8.94705882,1.27852941 C6.83156396,1.27852941 5.11607648,2.99245695 5.11413224,5.10795092 C5.1121913,7.22344489 6.82452821,8.94051202 8.94001949,8.94441191 C11.0555108,8.94829852 12.7741561,7.23754562 12.78,5.12205882 C12.7770838,3.00639295 11.0627247,1.2920338 8.94705882,1.28911765 L8.94705882,1.27852941 Z" id="Shape"></path>
            </g>
        </g>
    </g>
</svg>