<?xml version="1.0" encoding="UTF-8"?>
<svg width="17px" height="19px" viewBox="0 0 17 19" version="1.1" xmlns="http://www.w3.org/2000/svg" xmlns:xlink="http://www.w3.org/1999/xlink">
    <title>Combined Shape</title>
    <g id="Symbols" stroke="none" stroke-width="1" fill="none" fill-rule="evenodd">
        <g id="Element/Quick-Add" transform="translate(-12.000000, -11.000000)" fill="#1D1D1B" fill-rule="nonzero">
            <g id="Icon/Basket" transform="translate(12.000000, 11.000000)">
                <path d="M8.5,0 C10.6583614,0 11.7823977,1.63463488 11.9987747,3.78212297 C12.0115829,3.82505536 12.0178299,3.86967676 12.0174085,3.91447591 L12.017,4.56 L13.7775983,4.56030795 C14.0390121,4.55677897 14.2638972,4.74455808 14.30701,5.00241708 L16.6337747,17.9682994 C16.6589982,18.121799 16.6154357,18.278624 16.5146571,18.397123 C16.412274,18.5168578 16.2618849,18.5847755 16.104363,18.582533 L0.528480596,18.582533 C0.37372728,18.582533 0.226717309,18.5147253 0.126127654,18.397123 C0.0253490211,18.278624 -0.0182134719,18.121799 0.0070100071,17.9682994 L2.28877471,5.00506414 C2.33071915,4.74615119 2.55591971,4.55698272 2.81818648,4.56030795 L4.615,4.56 L4.61548474,3.91712297 C4.61482729,3.87144328 4.62107538,3.8259215 4.63406883,3.78212297 C4.85044591,1.63463488 6.34163855,0 8.5,0 Z M13.3302453,5.61388767 L9.373,5.613 L5.14495118,5.62981359 C5.10038014,5.63021046 5.05709427,5.62503891 5.01573748,5.61495168 L3.25759824,5.61388767 L1.15318648,17.5235936 L15.4928924,17.5235936 L13.3302453,5.61388767 Z M8.5,8 C8.77614237,8 9,8.22385763 9,8.5 L9,11 L11.5,11 C11.7761424,11 12,11.2238576 12,11.5 C12,11.7761424 11.7761424,12 11.5,12 L9,12 L9,14.5 C9,14.7761424 8.77614237,15 8.5,15 C8.22385763,15 8,14.7761424 8,14.5 L8,12 L5.5,12 C5.22385763,12 5,11.7761424 5,11.5 C5,11.2238576 5.22385763,11 5.5,11 L8,11 L8,8.5 C8,8.22385763 8.22385763,8 8.5,8 Z M8.5,1.07007202 C6.86177772,1.07007202 5.81921572,2.32676489 5.68495118,3.95947591 C5.6827615,3.97562661 5.67921965,3.99156494 5.67436295,4.00712297 L5.674,4.56 L8.61,4.56 L10.9584806,4.55241708 L10.9584806,4.00712297 C10.957179,3.99126728 10.957179,3.97533159 10.9584806,3.95947591 C10.8242161,2.32676489 10.1382223,1.07007202 8.5,1.07007202 Z" id="Combined-Shape"></path>
            </g>
        </g>
    </g>
</svg>