<?xml version="1.0" encoding="UTF-8"?>
<svg width="18px" height="20px" viewBox="0 0 18 20" version="1.1" xmlns="http://www.w3.org/2000/svg" xmlns:xlink="http://www.w3.org/1999/xlink">
    <title>Icons_Final_2_Shopping Bag_4pt</title>
    <g id="Symbols" stroke="none" stroke-width="1" fill="none" fill-rule="evenodd">
        <g id="Layout/Navigation_MV-Icons-3" transform="translate(-1300.000000, -1.000000)" fill="#1D1D1B" fill-rule="nonzero">
            <g id="Icons_Final_2_Shopping-Bag_4pt" transform="translate(1300.000000, 1.000000)">
                <path d="M17.2879412,19.5882947 L0.712058824,19.5882947 C0.557305508,19.5882947 0.410295537,19.5205435 0.309705882,19.4029412 C0.208927249,19.2844422 0.165364756,19.1276172 0.190588235,18.9741176 L2.47235294,5.01088235 C2.51429738,4.7519694 2.73949794,4.56280093 3.00176471,4.56612616 L14.9611765,4.56612616 C15.2225903,4.56259718 15.4474754,4.75037629 15.4905882,5.00823529 L17.8173529,18.9741176 C17.8425764,19.1276172 17.7990139,19.2844422 17.6982353,19.4029412 C17.5958522,19.522676 17.4454631,19.5905937 17.2879412,19.5882947 Z M1.33676471,18.5294118 L16.6764706,18.5294118 L14.5138235,5.61970588 L3.44117647,5.61970588 L1.33676471,18.5294118 Z" id="Shape"></path>
                <path d="M5.32852941,5.63823529 C5.03614337,5.63823529 4.79906297,5.40120957 4.79906297,5.10882353 L4.79906297,4.33323529 C4.79906297,4.29088235 4.79906297,4.25117647 4.79906297,4.21147059 C4.79906297,4.17176471 4.79906297,4.13205882 4.79906297,4.09235294 L4.79906297,3.92294118 C4.79840552,3.87726149 4.80465361,3.83173971 4.81764706,3.78794118 C5.03402414,1.64045309 6.84163855,0.00581820866 9,0.00581820866 C11.1583614,0.00581820866 12.9659759,1.64045309 13.1823529,3.78794118 C13.1951611,3.83087357 13.2014081,3.87549497 13.200913,3.92029412 L13.200913,4.08970588 C13.200913,4.12941176 13.200913,4.16911765 13.200913,4.20882353 C13.200913,4.24852941 13.200913,4.28823529 13.200913,4.33058824 L13.200913,5.08235294 C13.200913,5.37473899 12.9638566,5.61176471 12.6714706,5.61176471 L5.32852941,5.63558824 L5.32852941,5.63823529 Z M5.85794118,4.01294118 L5.85794118,4.16382353 C5.85794118,4.17970588 5.85794118,4.19558824 5.85794118,4.21147059 C5.85794118,4.22735294 5.85794118,4.24323529 5.85794118,4.25911765 L5.85794118,4.33058824 L5.85794118,4.57676471 L12.1420588,4.55823529 L12.1420588,4.25911765 C12.1420588,4.24323529 12.1420588,4.22735294 12.1420588,4.21147059 C12.1420588,4.19558824 12.1420588,4.17970588 12.1420588,4.16382353 L12.1420588,4.01294118 C12.1407572,3.99708549 12.1407572,3.9811498 12.1420588,3.96529412 C12.0077943,2.3325831 10.6435164,1.07589023 9.00529412,1.07589023 C7.36707184,1.07589023 6.00279395,2.3325831 5.86852941,3.96529412 C5.86633973,3.98144482 5.86279788,3.99738315 5.85794118,4.01294118 Z" id="Shape"></path>
            </g>
        </g>
    </g>
</svg>