<svg xmlns="http://www.w3.org/2000/svg" xmlns:xlink="http://www.w3.org/1999/xlink" width="20px" height="20px" viewBox="0 0 20 20" version="1.1">
    <title>Element/Personalisation</title>
    <defs>
        <polygon id="path-1" points="0 5.23043724e-05 19.9991415 5.23043724e-05 19.9991415 19.9194292 0 19.9194292"/>
    </defs>
    <g id="Symbols" stroke="none" stroke-width="1" fill="none" fill-rule="evenodd">
        <g id="Layout/Product_Carousel" transform="translate(-621.000000, -95.000000)">
            <g id="Group" transform="translate(621.000000, 95.000000)">
                <g id="Group-3" transform="translate(0.000000, 0.000000)">
                    <mask id="mask-2" fill="white">
                        <use xlink:href="#path-1"/>
                    </mask>
                    <g id="Clip-2"/>
                    <path d="M-9.43396226e-06,19.9194292 C-9.43396226e-06,19.9194292 6.48914151,-0.825099057 19.9991415,0.0255141509 C19.9991415,0.0255141509 18.323717,2.73900472 14.0948019,3.61589151 C14.0948019,3.61589151 16.0634811,3.85598585 17.6589057,3.32376887 C17.6589057,3.32376887 16.7014057,6.41004245 11.4892358,6.8341934 C11.4892358,6.8341934 14.3616887,7.57900472 15.6381509,7.15315566 C15.6381509,7.15315566 15.291783,9.45367453 9.98503774,10.5969764 C9.6705566,10.6641462 7.55239623,11.1940519 9.25414151,11.4072594 C9.25414151,11.4072594 11.7002264,11.8342877 12.3398019,11.6205142 C12.3398019,11.6205142 10.2446604,14.7582028 5.10527358,14.4924009 C4.59999057,14.4660802 4.35989623,14.4924009 4.35989623,14.4924009 L-9.43396226e-06,19.9194292 Z" id="Fill-1" fill="#000000" mask="url(#mask-2)"/>
                </g>
            </g>
        </g>
    </g>
</svg>