<svg xmlns="http://www.w3.org/2000/svg" xmlns:xlink="http://www.w3.org/1999/xlink" width="20.0004354px" height="17.2973228px" viewBox="0 0 20.0004354 17.2973228" version="1.1">
    <title>wishlist-empty</title>
    <g id="Job---Wishlist" stroke="none" stroke-width="1" fill="none" fill-rule="evenodd">
        <g id="Wishlist,-Account-(V1)" transform="translate(-152.999805, -635.000000)" fill="#FFFFFF" fill-rule="nonzero">
            <g id="Icon/Wishlist" transform="translate(153.000000, 584.000000)">
                <g id="Icon/Wishlist-Added" transform="translate(0.000000, 51.000000)">
                    <path d="M14.5660661,0 C15.94528,0 17.2611739,0.559919934 18.2714829,1.57663516 C19.3802291,2.69237348 20.0101878,4.26885239 20.0001217,5.90177641 C19.9913597,7.24524832 19.4560882,8.68610269 18.4089434,10.1842616 C17.5990243,11.3430466 16.4782469,12.5452299 15.077744,13.7574914 C12.7141584,15.8033046 10.3922524,17.1611514 10.2945574,17.2179481 C10.2035031,17.2708386 10.1017065,17.2973228 9.99998814,17.2973228 C9.89881662,17.2973228 9.79768416,17.2711901 9.70705947,17.2188465 C9.60862231,17.1620499 7.26991948,15.804164 4.89766208,13.7581554 C3.49165133,12.5455424 2.36931148,11.3428122 1.5618924,10.1834413 C0.517052273,8.68321208 -0.0083755926,7.24017021 -9.85692817e-05,5.89435456 C0.0100227811,4.32834437 0.570919274,2.8556151 1.57958765,1.74741582 C2.60528722,0.620544723 3.9741106,0 5.43398835,0 C7.30495842,0 9.01553843,1.04804324 10.0000272,2.70827186 C10.984516,1.0480823 12.695096,0 14.5660661,0 Z M9.999,16.231 L10.0174602,16.2203261 C11.0993823,15.5724591 12.5861849,14.5533533 14.0988729,13.2784633 L14.4232784,13.0013995 C15.7649997,11.840019 16.8302886,10.6973367 17.589309,9.61137451 C18.5280549,8.26830291 18.9928047,7.01735734 19.0001217,5.89553754 C19.0085635,4.52607295 18.4811364,3.20629067 17.5621449,2.28150367 C16.7375491,1.45167917 15.6760171,1 14.5660661,1 C13.0770332,1 11.67975,1.83622895 10.8601658,3.21833219 L10.0000171,4.66884133 L9.13988331,3.21832331 C8.32031318,1.83621128 6.92304503,1 5.43398835,1 C4.25913034,1 3.15755463,1.49940186 2.31912419,2.42053223 C1.47868174,3.3439058 1.00844234,4.57848133 0.999901685,5.90057787 C0.993008258,7.0209205 1.44780763,8.26987521 2.38249882,9.6119475 C3.13839654,10.6973391 4.20446796,11.8397733 5.55077731,13.0008969 C7.17907498,14.4052601 8.81447791,15.5268648 9.98042408,16.2200319 L9.999,16.231 Z" id="wishlist-empty"/>
                </g>
            </g>
        </g>
    </g>
</svg>