<svg xmlns="http://www.w3.org/2000/svg" xmlns:xlink="http://www.w3.org/1999/xlink" width="20.0002203px" height="17.5998457px" viewBox="0 0 20.0002203 17.5998457" version="1.1">
    <title>wishlist-full</title>
    <g id="Job---Wishlist" stroke="none" stroke-width="1" fill="none" fill-rule="evenodd">
        <g id="Wishlist,-Account-(V1)" transform="translate(-172.999901, -584.000000)" fill="#FFFFFF" fill-rule="nonzero" stroke="#FFFFFF">
            <g id="Icon/Wishlist" transform="translate(153.000000, 584.000000)">
                <path d="M34.5660661,0.5 C35.813247,0.5 37.0009957,1.0189269 37.9137783,1.95356271 C38.9337411,2.997909 39.509375,4.47452997 39.50001,6.00183569 C39.4919092,7.28345499 38.9767057,8.6528147 37.9968116,10.0792768 C37.2070739,11.2289492 36.1127392,12.42028 34.7472835,13.6228763 C32.7366749,15.3936056 30.7569434,16.6500565 30.1945086,16.9951308 C29.4043213,16.7918027 27.333877,15.4714717 25.2274532,13.6229636 C23.8570861,12.420421 22.7615352,11.229003 21.9744938,10.079127 C20.9980233,8.65254462 20.4921473,7.28283002 20.4999901,6.00058937 C20.5092226,4.53282881 21.0225192,3.15066583 21.9522386,2.11134098 C22.8787715,1.07561492 24.1137845,0.5 25.4339883,0.5 C27.1322541,0.5 28.6766892,1.47795461 29.5680358,3.00739911 C29.7433783,3.30826579 29.8876946,3.62060173 30.0001149,3.93919257 C30.1124438,3.62040059 30.2567279,3.30816997 30.432016,3.00740353 C31.3233632,1.47799406 32.8677983,0.5 34.5660661,0.5 Z" id="wishlist-full"/>
            </g>
        </g>
    </g>
</svg>