<?xml version="1.0" standalone="no"?>
<!DOCTYPE svg PUBLIC "-//W3C//DTD SVG 20010904//EN"
 "http://www.w3.org/TR/2001/REC-SVG-20010904/DTD/svg10.dtd">
<svg version="1.0" xmlns="http://www.w3.org/2000/svg"
 width="1024.000000pt" height="120.000000pt" viewBox="0 0 1024.000000 120.000000"
 preserveAspectRatio="xMidYMid meet">

<g transform="translate(0.000000,120.000000) scale(0.100000,-0.100000)"
fill="#000000" stroke="none">
<path d="M130 1191 c-116 -16 -131 -21 -128 -39 3 -12 12 -16 33 -15 17 2 91
4 165 5 145 2 222 -11 310 -55 l45 -22 3 -487 2 -487 -67 -3 c-60 -3 -68 -5
-68 -23 0 -19 8 -20 188 -23 l188 -2 -3 22 c-3 21 -9 23 -75 26 l-73 3 0 451
0 452 36 -35 c84 -80 154 -210 260 -481 87 -221 122 -295 175 -364 73 -96 186
-132 314 -101 33 8 53 17 45 20 -72 24 -110 40 -137 57 l-33 20 0 479 0 480
68 3 c61 3 67 5 70 26 l3 22 -186 0 -186 0 3 -22 c3 -21 9 -23 71 -26 l67 -3
0 -412 c-1 -285 -4 -407 -11 -395 -5 10 -37 91 -70 180 -116 311 -186 435
-316 559 -137 131 -288 188 -513 194 -69 2 -150 0 -180 -4z"/>
<path d="M2470 1000 c-232 -43 -380 -227 -380 -469 1 -104 12 -155 51 -238 55
-115 166 -205 294 -239 64 -18 206 -18 270 0 211 56 346 238 347 467 1 222
-113 392 -307 459 -67 23 -206 34 -275 20z m199 -99 c49 -25 87 -70 122 -145
41 -86 52 -154 47 -281 -6 -132 -29 -200 -90 -270 -52 -59 -106 -85 -178 -85
-165 0 -270 154 -270 393 1 298 178 485 369 388z"/>
<path d="M3674 995 c-9 -21 -1 -27 43 -34 l38 -6 3 -432 2 -432 -45 -7 c-35
-5 -45 -10 -45 -25 0 -18 10 -19 190 -19 180 0 190 1 190 19 0 15 -10 21 -40
26 l-40 7 0 184 0 184 28 0 c25 0 35 -15 124 -173 53 -95 98 -180 100 -188 2
-9 -7 -15 -24 -17 -20 -2 -28 -9 -28 -23 0 -18 9 -19 190 -19 179 0 190 1 190
19 0 14 -11 20 -52 27 l-52 9 -103 175 c-56 96 -103 181 -103 188 0 6 8 12 18
12 33 0 121 60 150 102 39 58 52 100 51 167 -1 102 -52 187 -140 236 l-54 30
-293 3 c-261 3 -293 2 -298 -13z m513 -91 c88 -66 104 -219 32 -307 -36 -44
-77 -57 -176 -57 l-73 0 0 196 0 196 95 -4 c75 -3 100 -8 122 -24z"/>
<path d="M5103 994 c-8 -22 6 -32 52 -36 l40 -3 72 -180 c39 -99 123 -312 185
-473 75 -196 116 -290 121 -280 5 7 84 220 177 473 l167 460 37 3 c31 3 36 7
36 28 l0 24 -187 -2 c-180 -3 -188 -4 -188 -23 0 -18 8 -20 88 -23 79 -2 88
-5 82 -20 -3 -9 -43 -116 -87 -237 -94 -258 -94 -257 -104 -230 -4 11 -47 123
-96 248 -48 126 -88 230 -88 233 0 2 16 4 35 4 31 0 35 3 35 25 l0 25 -185 0
c-159 0 -186 -2 -192 -16z"/>
<path d="M6750 987 c0 -23 -243 -878 -255 -897 -3 -6 -42 -10 -86 -10 -72 0
-79 -2 -79 -20 0 -19 7 -20 190 -20 183 0 190 1 190 20 0 18 -7 20 -58 20 -32
0 -61 2 -64 5 -3 3 8 48 23 100 15 52 33 113 39 135 l11 40 135 0 c130 0 135
-1 144 -22 10 -23 70 -231 70 -242 0 -3 -16 -8 -35 -12 -25 -4 -35 -11 -35
-25 0 -18 10 -19 190 -19 180 0 190 1 190 19 0 15 -10 20 -49 26 l-48 6 -77
267 c-43 147 -102 354 -133 460 l-56 192 -103 0 c-102 0 -104 0 -104 -23z
m104 -347 c26 -91 49 -173 52 -182 5 -16 -5 -18 -105 -18 -72 0 -111 4 -111
11 0 25 105 368 110 361 4 -4 28 -81 54 -172z"/>
<path d="M7902 998 c3 -7 37 -20 76 -27 l72 -15 0 -438 0 -438 -85 0 c-78 0
-85 -2 -85 -20 0 -19 7 -20 190 -20 183 0 190 1 190 20 0 18 -7 20 -60 20
l-60 0 0 378 c0 226 4 371 10 362 4 -8 105 -186 223 -395 l215 -380 166 -3
c161 -2 166 -2 166 18 0 17 -6 20 -49 20 -89 0 -81 -42 -81 446 l0 434 75 0
c73 0 75 1 75 25 l0 25 -185 0 -185 0 0 -25 c0 -24 2 -25 70 -25 l70 0 0 -372
c0 -204 -2 -369 -4 -367 -3 2 -104 180 -225 394 l-220 390 -181 3 c-144 2
-181 0 -178 -10z"/>
<path d="M9420 986 c0 -21 5 -25 38 -28 l37 -3 3 -432 2 -431 -40 -7 c-30 -5
-40 -11 -40 -26 0 -18 9 -19 180 -19 208 0 300 15 399 63 227 111 307 392 183
645 -60 124 -197 219 -357 247 -47 8 -148 14 -242 15 l-163 0 0 -24z m384 -70
c148 -45 238 -195 239 -396 0 -196 -89 -341 -236 -385 -28 -8 -61 -15 -74 -15
l-23 0 0 405 0 405 23 0 c13 0 45 -6 71 -14z"/>
</g>
</svg>
