<?xml version="1.0" encoding="UTF-8"?>
<svg width="19px" height="19px" viewBox="0 0 19 19" version="1.1" xmlns="http://www.w3.org/2000/svg" xmlns:xlink="http://www.w3.org/1999/xlink">
    <title>Icons_Final_2_Search_4pt</title>
    <g id="Symbols" stroke="none" stroke-width="1" fill="none" fill-rule="evenodd">
        <g id="Layout/Navigation_MV-Icons-3" transform="translate(-1202.000000, -1.000000)" fill="#1D1D1B" fill-rule="nonzero">
            <g id="Icons_Final_2_Search_4pt" transform="translate(1202.000000, 1.000000)">
                <path d="M8.07243243,16.1756757 C4.83373824,16.1756757 1.91409227,14.2243194 0.675418464,11.2318577 C-0.563255338,8.23939596 0.123089257,4.79540858 2.41429386,2.50640847 C4.70549847,0.21740836 8.15014494,-0.465620673 11.1414129,0.775933153 C14.1326809,2.01748698 16.0812242,4.93901001 16.0781118,8.1777027 C16.0710301,12.5949331 12.4896676,16.1728498 8.07243243,16.1756757 Z M8.07243243,1.19391892 C4.2188999,1.19391892 1.09473038,4.3173247 1.09378567,8.17085712 C1.09284139,12.0243895 4.21547946,15.1493253 8.06901153,15.1512162 C11.9225436,15.1531054 15.0482455,12.0312342 15.0510811,8.1777027 C15.048249,4.32467517 11.92546,1.20188612 8.07243243,1.19905405 L8.07243243,1.19391892 Z" id="Shape"></path>
                <path d="M18.4171622,18.827973 C18.2849481,18.8274465 18.1580317,18.7759442 18.0628378,18.6841892 L13.0740541,13.9008108 C12.9320487,13.7760844 12.8700367,13.5834335 12.9126204,13.39929 C12.9552042,13.2151466 13.0954996,13.0692799 13.277846,13.0195609 C13.4601924,12.9698419 13.6551111,13.0243084 13.7852703,13.1613514 L18.7714865,17.9447297 C18.9220027,18.0898019 18.9695525,18.3116369 18.8917196,18.5056553 C18.8138867,18.6996736 18.6262086,18.8271439 18.4171622,18.827973 Z" id="Path"></path>
            </g>
        </g>
    </g>
</svg>