<svg xmlns="http://www.w3.org/2000/svg" xmlns:xlink="http://www.w3.org/1999/xlink" width="9px" height="8px" viewBox="0 0 9 8" version="1.1">
    <title>Group 3</title>
    <defs>
        <polygon id="path-1" points="1.80760178e-05 0.000155454545 8.68254545 0.000155454545 8.68254545 7.19851909 1.80760178e-05 7.19851909"/>
    </defs>
    <g id="Desktop-Creative-Concept" stroke="none" stroke-width="1" fill="none" fill-rule="evenodd">
        <g id="PLP---Filters-1" transform="translate(-69.000000, -349.000000)">
            <g id="Finish-Filter" transform="translate(40.000000, 284.000000)">
                <g id="Group-3" transform="translate(29.000000, 65.000000)">
                    <mask id="mask-2" fill="white">
                        <use xlink:href="#path-1"/>
                    </mask>
                    <g id="Clip-2"/>
                    <path d="M7.83769091,0.159864545 L2.52114545,6.03686455 L0.844690909,4.18368273 C0.664690909,3.98486455 0.357872727,3.96931909 0.159872727,4.14931909 C-0.0389454545,4.32931909 -0.0544909091,4.63613727 0.125509091,4.83495545 L2.07769091,6.99250091 C2.16687273,7.12259182 2.31578182,7.19868273 2.47205455,7.19868273 C2.49087273,7.19868273 2.50805455,7.19131909 2.52605455,7.18886455 C2.53832727,7.19050091 2.5506,7.19704636 2.56287273,7.19704636 C2.70687273,7.19704636 2.84514545,7.13159182 2.94005455,7.02113727 L8.55769091,0.811137273 C8.73769091,0.612319091 8.72132727,0.305500909 8.52332727,0.125500909 C8.32450909,-0.0544990909 8.01769091,-0.0389536364 7.83769091,0.159864545" id="Fill-1" fill="#2A7F13" mask="url(#mask-2)"/>
                </g>
            </g>
        </g>
    </g>
</svg>