<svg xmlns="http://www.w3.org/2000/svg" xmlns:xlink="http://www.w3.org/1999/xlink" width="23px" height="25px" viewBox="0 0 23 25" version="1.1">
    <title>Group 5</title>
    <defs>
        <polygon id="path-1" points="0 0.0392207394 22.9538996 0.0392207394 22.9538996 23.3655321 0 23.3655321"/>
    </defs>
    <g id="Mobile-Creative-Concept" stroke="none" stroke-width="1" fill="none" fill-rule="evenodd">
        <g id="Mobile-PDP-_Product-Variant-1" transform="translate(-340.000000, -435.000000)">
            <g id="Group-5" transform="translate(351.500000, 447.500000) scale(-1, 1) translate(-351.500000, -447.500000) translate(340.000000, 435.000000)">
                <polygon id="Fill-1" fill="#000000" points="15.2060329 4.76151557 13.663056 4.76151557 13.663056 7.9031017 10.5771021 7.9031017 10.5771021 9.47389477 13.663056 9.47389477 13.663056 12.6154809 15.2060329 12.6154809 15.2060329 9.47389477 18.2919868 9.47389477 18.2919868 7.9031017 15.2060329 7.9031017"/>
                <g id="Group-4" transform="translate(0.000000, 0.009867)">
                    <mask id="mask-2" fill="white">
                        <use xlink:href="#path-1"/>
                    </mask>
                    <g id="Clip-3"/>
                    <path d="M14.5,15.9901335 C10.3579319,15.9901335 7,12.6322899 7,8.49010858 C7,4.347977 10.3579319,0.990133456 14.5,0.990133456 C18.6421178,0.990133456 22,4.347977 22,8.49010858 C21.995621,12.6304487 18.6403264,15.9857545 14.5,15.9901335 M19.9404123,1.96484159 C18.4035166,0.681694842 16.4642064,-0.0174993748 14.4635364,-0.00986654395 C9.76723542,0.00524887955 5.97234476,3.83136006 5.987419,8.53594105 C5.99369993,10.5048267 6.6806406,12.4107432 7.93136738,13.9295522 L0,21.8982172 L1.08998324,22.9901335 L9.05227213,15.0524447 C12.659991,18.0644588 18.0219258,17.5764361 21.0286562,13.9623677 C24.0352899,10.3482993 23.5480829,4.97690406 19.9404123,1.96484159" id="Fill-2" fill="#000000" mask="url(#mask-2)"/>
                </g>
            </g>
        </g>
    </g>
</svg>